<svg width="90" height="29" fill="none" xmlns="http://www.w3.org/2000/svg"><g clip-path="url('#clip0_513_58239')" fill-rule="evenodd" clip-rule="evenodd"><path d="M55.834 22.044c-5.23 3.974-12.81 6.095-19.337 6.095-9.152 0-17.39-3.49-23.624-9.294-.49-.456-.05-1.078.537-.723 6.727 4.035 15.044 6.462 23.635 6.462 5.794 0 12.168-1.236 18.03-3.8.884-.388 1.625.597.76 1.26" fill="#F90"/><path d="M58.009 19.48c-.666-.881-4.42-.417-6.104-.21-.513.064-.592-.397-.13-.728 2.99-2.169 7.895-1.543 8.467-.816.572.731-.15 5.8-2.958 8.22-.431.371-.842.173-.65-.32.63-1.623 2.045-5.262 1.375-6.147" fill="#F90"/><path d="M52.023 3.23V1.123c0-.319.235-.533.517-.533h9.155c.294 0 .53.218.53.533v1.806c-.005.303-.252.699-.69 1.325l-4.745 6.983c1.763-.045 3.624.226 5.223 1.155.36.21.458.517.485.82v2.25c0 .306-.329.666-.673.48-2.817-1.523-6.559-1.688-9.673.016-.318.178-.65-.178-.65-.484v-2.137c0-.343.003-.929.336-1.45l5.497-8.126H52.55a.514.514 0 0 1-.529-.53M18.625 16.385h-2.786a.533.533 0 0 1-.497-.488V1.159a.53.53 0 0 1 .536-.53h2.598c.27.013.486.227.505.493V3.05h.051c.678-1.862 1.951-2.73 3.667-2.73 1.743 0 2.832.868 3.616 2.73.674-1.862 2.205-2.73 3.847-2.73 1.168 0 2.445.496 3.224 1.611.882 1.24.701 3.041.701 4.62l-.003 9.302a.534.534 0 0 1-.537.533h-2.782a.539.539 0 0 1-.501-.533V8.041c0-.622.055-2.173-.078-2.763-.208-.99-.831-1.268-1.638-1.268-.674 0-1.38.465-1.665 1.208-.286.743-.259 1.987-.259 2.823v7.811a.534.534 0 0 1-.536.533h-2.782a.536.536 0 0 1-.501-.533L22.8 8.041c0-1.644.262-4.063-1.716-4.063-2.002 0-1.924 2.359-1.924 4.063v7.811a.534.534 0 0 1-.537.533M70.106.319c4.133 0 6.37 3.659 6.37 8.312 0 4.495-2.472 8.061-6.37 8.061-4.059 0-6.268-3.659-6.268-8.219 0-4.588 2.237-8.154 6.268-8.154Zm.024 3.009c-2.053 0-2.182 2.883-2.182 4.68 0 1.802-.028 5.647 2.158 5.647 2.159 0 2.26-3.102 2.26-4.992 0-1.244-.05-2.73-.415-3.91-.313-1.025-.936-1.425-1.821-1.425M81.836 16.385h-2.774a.539.539 0 0 1-.501-.533L78.557 1.11a.533.533 0 0 1 .536-.48h2.582a.537.537 0 0 1 .498.412v2.253h.05C83.004 1.28 84.097.32 86.02.32c1.25 0 2.468.464 3.251 1.736.73 1.18.73 3.163.73 4.589v9.277a.54.54 0 0 1-.538.464H86.67a.534.534 0 0 1-.493-.464V7.916c0-1.612.18-3.97-1.744-3.97-.678 0-1.3.468-1.61 1.179-.392.9-.443 1.797-.443 2.79v7.937a.543.543 0 0 1-.544.533M44.724 9.346c0 1.118.027 2.051-.521 3.045-.443.808-1.148 1.304-1.928 1.304-1.07 0-1.696-.84-1.696-2.08 0-2.447 2.127-2.891 4.145-2.891v.622Zm2.809 6.999a.568.568 0 0 1-.658.069c-.925-.792-1.093-1.16-1.599-1.915-1.528 1.608-2.613 2.088-4.591 2.088-2.347 0-4.169-1.49-4.169-4.475 0-2.33 1.223-3.918 2.97-4.693 1.512-.687 3.624-.808 5.238-.998V6.05c0-.683.05-1.49-.341-2.08-.337-.53-.987-.747-1.563-.747-1.062 0-2.006.561-2.237 1.724-.047.259-.231.513-.486.525l-2.7-.299c-.226-.052-.481-.242-.414-.601.619-3.377 3.58-4.395 6.229-4.395 1.355 0 3.126.372 4.195 1.43 1.356 1.305 1.227 3.045 1.227 4.94v4.475c0 1.345.54 1.934 1.05 2.661.176.259.215.57-.012.764-.568.488-1.579 1.397-2.135 1.906l-.004-.008M8.207 9.346c0 1.118.028 2.052-.52 3.045-.443.808-1.145 1.305-1.928 1.305-1.07 0-1.692-.84-1.692-2.08 0-2.448 2.127-2.892 4.14-2.892v.622Zm2.81 7a.568.568 0 0 1-.659.068c-.924-.792-1.089-1.16-1.598-1.915-1.528 1.608-2.61 2.088-4.592 2.088-2.342 0-4.168-1.49-4.168-4.475 0-2.33 1.226-3.917 2.97-4.693 1.512-.686 3.623-.808 5.237-.997V6.05c0-.683.051-1.49-.336-2.08-.341-.53-.992-.747-1.564-.747-1.061 0-2.01.561-2.24 1.724-.048.259-.232.513-.482.525L.88 5.174C.654 5.12.404 4.93.466 4.572 1.09 1.195 4.046.178 6.696.178c1.355 0 3.126.371 4.195 1.43 1.355 1.304 1.226 3.045 1.226 4.939v4.475c0 1.345.54 1.934 1.05 2.662.18.258.22.569-.008.763-.568.489-1.579 1.397-2.135 1.906l-.008-.008" fill="#000"/></g><defs><clipPath id="clip0_513_58239"><path fill="#fff" transform="translate(0 .177)" d="M0 0h90v27.961H0z"/></clipPath></defs></svg>