<svg width="91" height="31" fill="none" xmlns="http://www.w3.org/2000/svg"><g clip-path="url('#clip0_513_58232')"><path d="M38.478 15.547c0 4.208-3.305 7.308-7.362 7.308-4.056 0-7.362-3.1-7.362-7.308 0-4.238 3.305-7.309 7.362-7.309s7.362 3.071 7.362 7.309Zm-3.223 0c0-2.63-1.915-4.429-4.139-4.429-2.223 0-4.14 1.8-4.14 4.429 0 2.603 1.917 4.428 4.14 4.428 2.224 0 4.14-1.828 4.14-4.428Z" fill="#EA4335"/><path d="M54.36 15.547c0 4.208-3.305 7.308-7.361 7.308-4.057 0-7.363-3.1-7.363-7.308 0-4.235 3.306-7.309 7.362-7.309 4.057 0 7.363 3.071 7.363 7.309Zm-3.222 0c0-2.63-1.916-4.429-4.14-4.429-2.223 0-4.139 1.8-4.139 4.429 0 2.603 1.916 4.428 4.14 4.428 2.223 0 4.139-1.828 4.139-4.428Z" fill="#FBBC05"/><path d="M69.581 8.68V21.8c0 5.398-3.196 7.602-6.975 7.602-3.557 0-5.698-2.37-6.505-4.307l2.806-1.163c.5 1.19 1.724 2.593 3.696 2.593 2.419 0 3.918-1.486 3.918-4.283V21.19h-.113c-.721.887-2.111 1.661-3.865 1.661-3.67 0-7.03-3.183-7.03-7.279 0-4.126 3.36-7.335 7.03-7.335 1.75 0 3.14.774 3.865 1.634h.113v-1.19h3.06V8.68Zm-2.832 6.893c0-2.574-1.724-4.455-3.918-4.455-2.223 0-4.086 1.881-4.086 4.455 0 2.547 1.863 4.402 4.086 4.402 2.194 0 3.918-1.855 3.918-4.402Z" fill="#4285F4"/><path d="M74.627.989v21.418h-3.143V.99h3.143Z" fill="#34A853"/><path d="m86.876 17.952 2.502 1.661c-.807 1.19-2.753 3.24-6.115 3.24-4.169 0-7.282-3.21-7.282-7.31 0-4.346 3.14-7.308 6.922-7.308 3.808 0 5.671 3.018 6.28 4.65l.334.83-9.81 4.046c.75 1.466 1.918 2.215 3.556 2.215 1.641 0 2.78-.805 3.613-2.024Zm-7.7-2.63 6.559-2.711c-.36-.913-1.446-1.549-2.723-1.549-1.638 0-3.918 1.44-3.835 4.26Z" fill="#EA4335"/><path d="M11.856 13.645v-3.1h10.492c.103.54.155 1.18.155 1.871 0 2.327-.638 5.203-2.696 7.253-2.002 2.076-4.56 3.183-7.948 3.183-6.28 0-11.561-5.094-11.561-11.348 0-6.255 5.28-11.35 11.56-11.35 3.475 0 5.95 1.359 7.81 3.128L17.47 5.47c-1.334-1.246-3.14-2.214-5.615-2.214-4.586 0-8.173 3.68-8.173 8.248 0 4.567 3.587 8.247 8.173 8.247 2.974 0 4.668-1.19 5.754-2.27.88-.877 1.459-2.129 1.687-3.839l-7.441.003Z" fill="#4285F4"/></g><defs><clipPath id="clip0_513_58232"><path fill="#fff" transform="translate(.179)" d="M0 0h90v30.316H0z"/></clipPath></defs></svg>