<svg width="26" height="26" fill="none" xmlns="http://www.w3.org/2000/svg"><path d="m13.508 20.556 5.815 3.692c.75.473 1.672-.23 1.453-1.096l-1.684-6.622a1.003 1.003 0 0 1 .334-1.016l5.215-4.35c.681-.565.335-1.707-.553-1.765l-6.808-.438a.958.958 0 0 1-.842-.623L13.9 1.946a.958.958 0 0 0-1.8 0L9.562 8.338a.958.958 0 0 1-.843.623L1.912 9.4c-.888.058-1.234 1.2-.553 1.766l5.215 4.35a1.004 1.004 0 0 1 .334 1.015l-1.557 6.138c-.266 1.038.842 1.88 1.73 1.315l5.411-3.427a.946.946 0 0 1 1.016 0v0Z" stroke="#FF8EB0" stroke-width="2" stroke-linecap="round" stroke-linejoin="round"/></svg>