<svg width="24" height="25" fill="none" xmlns="http://www.w3.org/2000/svg"><path opacity=".2" d="M8.672 12.1a7.838 7.838 0 0 0 3.656 3.647.75.75 0 0 0 .74-.056l2.345-1.566a.74.74 0 0 1 .712-.065l4.387 1.884a.74.74 0 0 1 .45.778A4.5 4.5 0 0 1 16.5 20.65 12.75 12.75 0 0 1 3.75 7.9a4.5 4.5 0 0 1 3.928-4.462.74.74 0 0 1 .778.45l1.885 4.397a.75.75 0 0 1-.057.703l-1.565 2.38a.75.75 0 0 0-.047.732Z" fill="#FF8EB0"/><path d="M8.672 12.1a7.838 7.838 0 0 0 3.656 3.647.75.75 0 0 0 .74-.056l2.345-1.566a.74.74 0 0 1 .712-.065l4.387 1.884a.74.74 0 0 1 .45.778A4.5 4.5 0 0 1 16.5 20.65 12.75 12.75 0 0 1 3.75 7.9a4.5 4.5 0 0 1 3.928-4.462.74.74 0 0 1 .778.45l1.885 4.397a.75.75 0 0 1-.057.703l-1.565 2.38a.75.75 0 0 0-.047.732ZM14.944 4.15a7.509 7.509 0 0 1 5.306 5.307M14.166 7.047a4.49 4.49 0 0 1 3.187 3.188" stroke="#FF8EB0" stroke-width="1.5" stroke-linecap="round" stroke-linejoin="round"/></svg>