<svg width="20" height="20" fill="none" xmlns="http://www.w3.org/2000/svg"><path d="M7.352 14.422C6.46 17.07 2.93 17.07 2.93 17.07s0-3.53 2.648-4.422M15.305 8.234 10 13.54 6.46 10l5.306-5.305c2.007-2.008 4.015-1.984 4.875-1.86a.61.61 0 0 1 .523.524c.125.86.148 2.868-1.86 4.875Z" stroke="#F8F9FF" stroke-width="1.5" stroke-linecap="round" stroke-linejoin="round"/><path d="M14.422 9.117v5.047a.626.626 0 0 1-.188.438l-2.523 2.53a.625.625 0 0 1-1.055-.32L10 13.54M10.883 5.578H5.836a.625.625 0 0 0-.438.188l-2.53 2.523a.625.625 0 0 0 .32 1.055L6.46 10" stroke="#F8F9FF" stroke-width="1.5" stroke-linecap="round" stroke-linejoin="round"/></svg>