<svg width="32" height="33" fill="none" xmlns="http://www.w3.org/2000/svg"><g clip-path="url('#clip0_513_58615')"><path d="M29.855 8.369a15.932 15.932 0 0 0-5.823-5.823C21.58 1.116 18.904.4 16 .4c-2.902 0-5.58.716-8.03 2.146A15.928 15.928 0 0 0 2.145 8.37C.716 10.821 0 13.498 0 16.4c0 2.903.715 5.58 2.146 8.032a15.933 15.933 0 0 0 5.823 5.823C10.42 31.685 13.097 32.4 16 32.4c2.903 0 5.58-.715 8.032-2.145a15.93 15.93 0 0 0 5.822-5.823C31.284 21.98 32 19.303 32 16.4c0-2.902-.715-5.58-2.145-8.031ZM16 2.734c3.444 0 6.452 1.139 9.02 3.416l-.26.365c-.104.146-.364.427-.78.843-.417.417-.872.813-1.365 1.188-.494.375-1.163.802-2.01 1.281-.848.48-1.75.9-2.71 1.26C16.3 8.144 14.592 5.49 12.772 3.13a13.783 13.783 0 0 1 3.23-.395ZM5.292 7.92a13.482 13.482 0 0 1 4.875-3.875c1.722 2.292 3.416 4.917 5.083 7.875-4.222 1.111-8.43 1.667-12.625 1.667A13.507 13.507 0 0 1 5.292 7.92ZM3.25 21.328a13.406 13.406 0 0 1-.917-4.928c0-.194.008-.34.021-.437 5.028 0 9.702-.646 14.021-1.938.445.861.813 1.632 1.105 2.313a1.687 1.687 0 0 1-.271.094l-.272.072-.77.271c-.528.195-1.22.528-2.073 1a34.757 34.757 0 0 0-2.72 1.688c-.958.653-1.947 1.517-2.968 2.594a17.46 17.46 0 0 0-2.573 3.469 13.683 13.683 0 0 1-2.583-4.198ZM16 30.068c-3.25 0-6.153-1.043-8.708-3.126l.312.23c.486-1.07 1.201-2.098 2.146-3.084.945-.986 1.854-1.781 2.73-2.386a26.868 26.868 0 0 1 2.854-1.708c1.027-.535 1.728-.875 2.104-1.02.375-.146.674-.261.896-.345l.041-.02h.042c1.36 3.569 2.333 7.027 2.916 10.374A13.656 13.656 0 0 1 16 30.067Zm11.5-6.282a13.652 13.652 0 0 1-3.853 3.948c-.57-3.194-1.459-6.452-2.667-9.771 2.764-.431 5.604-.23 8.52.604a13.482 13.482 0 0 1-2 5.219Zm1.959-7.573c-.14-.028-.313-.06-.521-.094a262.39 262.39 0 0 0-.76-.125 20.971 20.971 0 0 0-1-.135c-.369-.042-.761-.08-1.178-.114a34.45 34.45 0 0 0-2.771-.115c-.486 0-.997.014-1.531.041-.535.028-1.052.077-1.552.146a2.495 2.495 0 0 1-.156-.344 7.134 7.134 0 0 1-.135-.364c-.264-.584-.57-1.243-.918-1.98.959-.388 1.872-.836 2.74-1.343.869-.507 1.563-.958 2.084-1.354a17.32 17.32 0 0 0 1.479-1.26c.465-.445.767-.754.906-.928.14-.174.271-.344.396-.51l.021-.021c2.028 2.472 3.063 5.319 3.104 8.542l-.209-.042Z" fill="#FF8EB0"/></g><defs><clipPath id="clip0_513_58615"><path fill="#fff" transform="translate(0 .4)" d="M0 0h32v32H0z"/></clipPath></defs></svg>