<svg width="32" height="33" fill="none" xmlns="http://www.w3.org/2000/svg"><path fill-rule="evenodd" clip-rule="evenodd" d="M0 16.4C0 7.564 7.163.4 16 .4s16 7.164 16 16c0 8.837-7.163 16-16 16s-16-7.163-16-16Z" fill="#4E4D4D"/><path fill-rule="evenodd" clip-rule="evenodd" d="M22.668 10.9a2.167 2.167 0 0 1 1.509 1.55c.356 1.366.356 4.217.356 4.217s0 2.851-.356 4.218a2.167 2.167 0 0 1-1.51 1.55C21.338 22.8 16 22.8 16 22.8s-5.337 0-6.668-.366a2.167 2.167 0 0 1-1.509-1.55c-.356-1.366-.356-4.217-.356-4.217s0-2.851.356-4.218a2.167 2.167 0 0 1 1.51-1.55c1.33-.365 6.667-.365 6.667-.365s5.337 0 6.668.366ZM14.4 14.267V19.6l4.267-2.666-4.267-2.667Z" fill="#fff"/></svg>