<svg width="32" height="33" fill="none" xmlns="http://www.w3.org/2000/svg"><g clip-path="url('#clip0_513_58613')" fill="#FF8EB0"><path d="M15.967 3.283c4.265 0 4.765.019 6.451.095 1.559.07 2.402.33 2.966.55.747.292 1.28.635 1.837 1.192.558.558.906 1.09 1.191 1.838.216.564.482 1.407.552 2.965.076 1.686.095 2.187.095 6.451 0 4.265-.02 4.765-.095 6.45-.07 1.56-.33 2.402-.552 2.966-.291.748-.633 1.28-1.19 1.838a4.875 4.875 0 0 1-1.838 1.191c-.564.216-1.407.482-2.966.552-1.686.076-2.186.095-6.45.095-4.265 0-4.766-.02-6.451-.096-1.56-.07-2.402-.329-2.966-.55-.748-.292-1.28-.634-1.838-1.192a4.877 4.877 0 0 1-1.19-1.838c-.216-.564-.482-1.406-.552-2.965-.076-1.686-.095-2.186-.095-6.45 0-4.265.019-4.766.095-6.452.07-1.558.33-2.401.551-2.965.292-.748.634-1.28 1.191-1.838A4.877 4.877 0 0 1 6.551 3.93c.564-.216 1.407-.482 2.966-.551 1.685-.083 2.186-.095 6.45-.095Zm0-2.877c-4.334 0-4.879.019-6.583.095-1.699.076-2.858.348-3.872.741a7.78 7.78 0 0 0-2.826 1.844A7.918 7.918 0 0 0 .842 5.912C.449 6.926.176 8.086.1 9.79.024 11.49.005 12.034.005 16.368s.02 4.879.095 6.584c.076 1.698.349 2.857.742 3.877a7.781 7.781 0 0 0 1.844 2.827A7.918 7.918 0 0 0 5.512 31.5c1.014.392 2.173.665 3.878.741 1.704.076 2.243.095 6.584.095 4.34 0 4.879-.019 6.583-.095 1.699-.076 2.858-.349 3.878-.741a7.78 7.78 0 0 0 2.827-1.844 7.918 7.918 0 0 0 1.843-2.826c.393-1.014.666-2.174.742-3.878.076-1.705.095-2.244.095-6.584s-.02-4.88-.095-6.584c-.076-1.698-.349-2.858-.742-3.878a7.78 7.78 0 0 0-1.843-2.826 7.918 7.918 0 0 0-2.827-1.844C25.422.843 24.262.57 22.557.494c-1.71-.07-2.255-.088-6.59-.088Z"/><path d="M15.967 8.168a8.2 8.2 0 0 0 0 16.4c4.525 0 8.2-3.676 8.2-8.2 0-4.524-3.675-8.2-8.2-8.2Zm0 13.523a5.322 5.322 0 1 1 5.323-5.323 5.322 5.322 0 0 1-5.323 5.323ZM24.49 9.759a1.914 1.914 0 1 0 0-3.828 1.914 1.914 0 0 0 0 3.828Z"/></g><defs><clipPath id="clip0_513_58613"><path fill="#fff" transform="translate(0 .4)" d="M0 0h32v32H0z"/></clipPath></defs></svg>