<svg width="32" height="33" fill="none" xmlns="http://www.w3.org/2000/svg"><circle cx="16" cy="16.4" r="16" fill="#4E4D4D"/><path d="M16 4.4C9.373 4.4 4 9.91 4 16.704c0 5.436 3.438 10.048 8.206 11.675.6.114.82-.267.82-.592 0-.293-.01-1.262-.016-2.29-3.338.744-4.043-1.452-4.043-1.452-.546-1.422-1.332-1.8-1.332-1.8-1.089-.764.082-.748.082-.748 1.205.087 1.84 1.268 1.84 1.268 1.07 1.88 2.807 1.337 3.491 1.022.108-.795.42-1.338.762-1.645-2.665-.31-5.467-1.366-5.467-6.08 0-1.344.469-2.441 1.236-3.303-.124-.31-.535-1.561.117-3.256 0 0 1.007-.33 3.3 1.261.958-.272 1.984-.41 3.004-.414 1.02.005 2.047.142 3.006.414 2.29-1.592 3.297-1.261 3.297-1.261.653 1.695.242 2.946.118 3.256.77.862 1.235 1.96 1.235 3.303 0 4.725-2.808 5.766-5.48 6.07.43.382.814 1.131.814 2.279 0 1.646-.014 2.971-.014 3.376 0 .328.216.711.825.59C24.566 26.75 28 22.14 28 16.705 28 9.91 22.627 4.4 16 4.4Z" fill="#fff"/><path d="M8.58 21.982c-.026.06-.12.078-.205.037-.087-.04-.136-.123-.107-.183.025-.063.12-.08.206-.038.087.04.137.123.106.184ZM9.066 22.532c-.058.054-.17.029-.245-.056-.078-.085-.093-.199-.035-.254.059-.053.167-.028.246.057.078.086.093.198.034.253ZM9.538 23.233c-.074.052-.194.004-.268-.105-.073-.108-.073-.238.002-.29.074-.052.192-.005.268.102.073.11.073.24-.002.293ZM10.185 23.911c-.066.074-.206.054-.308-.046-.105-.098-.134-.238-.068-.311.066-.074.207-.054.31.046.104.098.136.238.066.311ZM11.077 24.305c-.028.095-.163.139-.299.098-.135-.042-.224-.153-.197-.25.029-.096.164-.141.3-.098.136.042.225.153.196.25ZM12.058 24.378c.003.1-.112.184-.254.186-.144.003-.26-.079-.261-.177 0-.102.112-.184.256-.187.142-.003.259.078.259.178ZM12.97 24.22c.017.098-.082.199-.224.226-.139.025-.267-.035-.285-.132-.017-.1.084-.201.222-.227.142-.026.269.033.287.133Z" fill="#fff"/></svg>