<svg width="32" height="33" fill="none" xmlns="http://www.w3.org/2000/svg"><path d="M32 5.22c-1.198.556-2.47.92-3.77 1.082a6.848 6.848 0 0 0 2.884-3.8 12.803 12.803 0 0 1-4.169 1.666c-1.24-1.386-2.976-2.17-4.791-2.167-3.624 0-6.566 3.073-6.566 6.865 0 .538.058 1.063.172 1.565-5.457-.287-10.294-3.02-13.532-7.174A7.066 7.066 0 0 0 1.34 6.71c0 2.381 1.158 4.483 2.92 5.715a6.306 6.306 0 0 1-2.975-.86v.088c0 3.326 2.264 6.1 5.265 6.733a6.322 6.322 0 0 1-2.964.117c.836 2.729 3.261 4.713 6.133 4.77-2.247 1.84-5.077 2.939-8.154 2.939-.523 0-1.045-.033-1.565-.096C2.905 28.062 6.357 29.2 10.064 29.2c12.076 0 18.678-10.465 18.678-19.539 0-.297 0-.594-.02-.888a13.753 13.753 0 0 0 3.276-3.553H32Z" fill="#FF8EB0"/></svg>