<svg width="32" height="33" fill="none" xmlns="http://www.w3.org/2000/svg"><path fill-rule="evenodd" clip-rule="evenodd" d="M0 16.4C0 7.564 7.163.4 16 .4s16 7.164 16 16c0 8.837-7.163 16-16 16s-16-7.163-16-16Z" fill="#4E4D4D"/><path d="M11.546 10.282C11.522 9.214 10.758 8.4 9.518 8.4s-2.051.814-2.051 1.882c0 1.046.787 1.883 2.004 1.883h.023c1.264 0 2.052-.837 2.052-1.883ZM11.307 13.652H7.681v10.895h3.626V13.652ZM20.209 13.396c2.386 0 4.175 1.558 4.175 4.904v6.247h-3.626v-5.829c0-1.464-.525-2.463-1.838-2.463-1.001 0-1.598.674-1.86 1.324-.096.233-.12.558-.12.884v6.084h-3.626s.048-9.872 0-10.894h3.627v1.543c.48-.742 1.343-1.8 3.268-1.8Z" fill="#fff"/></svg>