<svg width="32" height="33" fill="none" xmlns="http://www.w3.org/2000/svg"><path fill-rule="evenodd" clip-rule="evenodd" d="M14.681 8.88c.604.829.907 1.82.907 2.976 0 1.19-.303 2.15-.914 2.874-.343.404-.845.776-1.51 1.11 1.01.363 1.77.937 2.287 1.722.511.784.77 1.738.77 2.859 0 1.156-.294 2.194-.883 3.11a5.423 5.423 0 0 1-1.4 1.536c-.63.477-1.373.802-2.233.98-.86.176-1.79.261-2.794.261H0V6.8h9.556c2.412.036 4.119.728 5.125 2.08Zm-10.74 1.308v4.304h4.81c.856 0 1.554-.161 2.092-.484.534-.323.803-.895.803-1.712 0-.911-.353-1.51-1.06-1.804-.614-.202-1.393-.304-2.34-.304H3.942Zm0 12.735V17.72h4.87c.847.007 1.507.119 1.977.33.841.38 1.26 1.077 1.26 2.094 0 1.2-.434 2.009-1.301 2.435-.476.229-1.146.344-2.004.344H3.942Z" fill="#FF8EB0"/><path d="M20.448 10.138h8.474V7.71h-8.474v2.428Z" fill="#FF8EB0"/><path fill-rule="evenodd" clip-rule="evenodd" d="M28.175 12.176c1.022.449 1.863 1.162 2.525 2.134.604.858.992 1.853 1.168 2.983.104.661.145 1.619.128 2.864H21.342c.064 1.446.568 2.462 1.531 3.043.583.361 1.285.543 2.11.543.867 0 1.576-.22 2.12-.66.299-.24.562-.57.788-.993h3.904c-.104.853-.578 1.724-1.417 2.607-1.31 1.402-3.144 2.103-5.501 2.103-1.947 0-3.665-.59-5.15-1.774-1.492-1.183-2.233-3.11-2.233-5.775 0-2.5.672-4.417 2.013-5.752 1.345-1.33 3.086-2 5.229-2 1.273 0 2.42.226 3.44.677Zm-5.72 3.26c-.54.549-.88 1.293-1.02 2.232h6.591c-.07-1.002-.412-1.76-1.017-2.281-.614-.518-1.368-.776-2.271-.776-.979 0-1.743.275-2.283.824Z" fill="#FF8EB0"/></svg>