<svg width="32" height="33" fill="none" xmlns="http://www.w3.org/2000/svg"><path fill-rule="evenodd" clip-rule="evenodd" d="M0 16.4C0 7.564 7.163.4 16 .4s16 7.164 16 16c0 8.837-7.163 16-16 16s-16-7.163-16-16Z" fill="#4E4D4D"/><path fill-rule="evenodd" clip-rule="evenodd" d="M16 7.867c-2.317 0-2.608.01-3.518.052-.908.041-1.528.185-2.07.396a4.178 4.178 0 0 0-1.513.984c-.474.475-.766.95-.984 1.512-.212.542-.356 1.163-.397 2.07-.04.911-.051 1.202-.051 3.52 0 2.317.01 2.607.051 3.517.042.909.186 1.529.397 2.072.218.56.51 1.037.984 1.511.474.475.95.767 1.511.985.543.211 1.163.355 2.072.396.91.042 1.2.052 3.518.052 2.317 0 2.607-.01 3.518-.052.908-.041 1.529-.185 2.072-.396a4.173 4.173 0 0 0 1.51-.985c.475-.474.767-.95.985-1.511.21-.543.354-1.163.397-2.071.04-.91.051-1.2.051-3.518 0-2.318-.01-2.609-.051-3.519-.043-.909-.187-1.529-.397-2.071a4.187 4.187 0 0 0-.985-1.512 4.17 4.17 0 0 0-1.51-.984c-.545-.21-1.165-.355-2.074-.396-.91-.042-1.2-.052-3.518-.052h.003Zm-.765 1.538h.766c2.278 0 2.548.008 3.448.049.832.038 1.284.177 1.584.294.399.155.682.34.981.638.299.299.483.583.639.982.116.3.256.752.293 1.583.041.9.05 1.17.05 3.448 0 2.277-.009 2.547-.05 3.447-.038.832-.177 1.283-.293 1.584-.155.398-.34.682-.639.98a2.64 2.64 0 0 1-.98.638c-.301.118-.753.256-1.585.294-.9.041-1.17.05-3.448.05-2.279 0-2.549-.009-3.448-.05-.833-.038-1.284-.177-1.585-.294a2.642 2.642 0 0 1-.981-.638 2.645 2.645 0 0 1-.639-.98c-.117-.301-.256-.753-.294-1.585-.04-.9-.049-1.17-.049-3.448 0-2.28.008-2.548.05-3.448.037-.832.176-1.283.293-1.584.155-.398.34-.683.639-.981.298-.299.583-.484.981-.639.3-.117.752-.256 1.585-.294.787-.036 1.092-.046 2.682-.048v.002Zm5.32 1.417a1.024 1.024 0 1 0 0 2.048 1.024 1.024 0 0 0 0-2.048Zm-4.554 1.196a4.382 4.382 0 1 0 0 8.765 4.382 4.382 0 0 0 0-8.765Zm0 1.538a2.844 2.844 0 1 1 0 5.689 2.844 2.844 0 0 1 0-5.689Z" fill="#fff"/></svg>