<svg width="27" height="26" fill="none" xmlns="http://www.w3.org/2000/svg"><path d="m14.174 20.556 5.815 3.692c.75.473 1.673-.23 1.454-1.096l-1.684-6.622a1.003 1.003 0 0 1 .334-1.016l5.215-4.35c.68-.565.335-1.707-.554-1.765l-6.807-.438a.958.958 0 0 1-.842-.623l-2.538-6.392a.958.958 0 0 0-1.8 0l-2.539 6.392a.958.958 0 0 1-.842.623L2.58 9.4c-.888.058-1.235 1.2-.554 1.766l5.215 4.35a1.004 1.004 0 0 1 .335 1.015l-1.558 6.138c-.265 1.038.842 1.88 1.73 1.315l5.412-3.427a.946.946 0 0 1 1.015 0v0Z" fill="#FF8EB0" stroke="#FF8EB0" stroke-width="2" stroke-linecap="round" stroke-linejoin="round"/></svg>